<?xml version="1.0" ?><!DOCTYPE svg  PUBLIC '-//W3C//DTD SVG 1.1//EN'  'http://www.w3.org/Graphics/SVG/1.1/DTD/svg11.dtd'><svg enable-background="new 0 0 48 48" height="48px" id="Layer_4" version="1.1" viewBox="0 0 48 48" width="48px" xml:space="preserve" xmlns="http://www.w3.org/2000/svg" xmlns:xlink="http://www.w3.org/1999/xlink"><g><rect fill="#241F20" height="24" width="24" y="24"/><polygon fill="#241F20" points="36.167,0 35,0 30.084,0 30.084,4.062 35,4.062 36.167,4.062 43.938,4.062 43.938,6.083    43.938,13.031 43.938,18 48,18 48,13.031 48,6.083 48,4.062 48,0.031 48,0  "/><polygon fill="#241F20" points="43.917,40.584 43.938,40.584 43.938,43.969 36.167,43.969 35,43.969 30.084,43.969 30.084,48    35,48 35,48.031 48,48.031 48,48 48,43.969 48,40.584 48,35 48,30 43.917,30  "/><polygon fill="#241F20" points="4.083,11.083 4.062,11.083 4.062,4.031 9.917,4.031 13,4.031 18.083,4.031 18.083,-0.031    13,-0.031 9.917,-0.031 0,-0.031 0,0 0,4.031 0,11.083 0,13 0,18 4.083,18  "/></g></svg>